<?xml version="1.0" encoding="UTF-8" standalone="no"?>
<!DOCTYPE svg PUBLIC "-//W3C//DTD SVG 1.1//EN" "http://www.w3.org/Graphics/SVG/1.1/DTD/svg11.dtd">
<svg width="796" height="135" viewBox="0 0 796 135" version="1.1" xmlns="http://www.w3.org/2000/svg" xmlns:xlink="http://www.w3.org/1999/xlink" xml:space="preserve" xmlns:serif="http://www.serif.com/" style="fill-rule:evenodd;clip-rule:evenodd;stroke-linejoin:round;stroke-miterlimit:2;">
    <g transform="matrix(1,0,0,1,0,-3844)">
        <g id="Wulfrun-Logo" serif:id="Wulfrun Logo" transform="matrix(0.857635,0,0,0.566738,1171.528916,3234.756172)">
            <rect x="-1366" y="1075" width="927.192" height="237.732" style="fill:none;"/>
            <g transform="matrix(1.165998,0,0,1.764482,-1244.352947,1040.415003)">
                <text x="63.195px" y="94.291px" style="font-family:'Poppins-Bold', 'Poppins';font-weight:700;font-size:83.333px;fill:white;">W<tspan x="147.528px " y="94.291px ">u</tspan>lfrun</text>
                <text x="406.279px" y="94.291px" style="font-family:'Poppins-Light', 'Poppins';font-weight:300;font-size:83.333px;fill:white;">Group</text>
                <g transform="matrix(33.333333,0,0,33.333333,458.827933,142.665667)">
                </g>
                <text x="63.195px" y="142.666px" style="font-family:'Poppins-Light', 'Poppins';font-weight:300;font-size:33.333px;fill:white;">ROOFING CONTRACTORS</text>
            </g>
            <g transform="matrix(0.008492,0,0,0.012851,-1272.976407,1201.609943)">
                <g transform="matrix(1,0,0,1,-8078,-8064)">
                    <g id="path1" transform="matrix(1,0,0,1,-0.023782,138.555283)">
                        <g id="g1">
                            <path id="path11" serif:id="path1" d="M6572.78,15371.952C6547.598,15367.978 6530.687,15360.065 6515.952,15345.361C6499.411,15328.854 6490.925,15307.973 6488.035,15276.667C6485.927,15253.832 6489.491,15217.849 6496.135,15194.894L6498.709,15186L6483.113,14547.333C6474.536,14196.067 6467.394,13908.485 6467.243,13908.263C6467.093,13908.04 6458.951,13911.237 6449.151,13915.366C6098.722,14063.018 5124.032,14228.54 3626.667,14394.681C3146.265,14447.985 2640.344,14498.117 2092,14546.752C2041.767,14551.208 1993.467,14555.967 1984.667,14557.33C1936.585,14564.772 1889.591,14564.057 1855.312,14555.361C1826.199,14547.976 1808.776,14538.414 1789.921,14519.473C1777.784,14507.282 1775.785,14504.541 1768.914,14490.667C1750.078,14452.637 1747.088,14406.526 1759.457,14344.82C1765.48,14314.773 1778.493,14273.143 1789.918,14247.372C1793.425,14239.462 1793.441,14239.266 1792.564,14216.705C1789.559,14139.407 1806.931,14006.926 1840.825,13848.667C1941.212,13379.936 2201.705,12578.049 2596.642,11522C2717.568,11198.649 2864.336,10817.893 2973.566,10544.164C2987.429,10509.421 2998.457,10480.679 2998.072,10480.294C2996.571,10478.793 2302.898,10631.125 1973.333,10705.328C1620.304,10784.814 1368.425,10843.764 1246,10875.551C1224.733,10881.073 1197.133,10888.224 1184.667,10891.442C1172.2,10894.66 1152.7,10898.935 1141.333,10900.942C1122.81,10904.212 1117.555,10904.586 1090.667,10904.547C1062.546,10904.507 1059.855,10904.284 1047.702,10901.004C1004.938,10889.462 983.386,10863.057 978.639,10816.391C974.695,10777.626 988.224,10718.124 1014.37,10659.232C1017.325,10652.576 1399.349,9985.486 1863.313,9176.808C2327.276,8368.13 2706.599,7705.748 2706.254,7704.847C2705.577,7703.084 2691.492,7692.169 2460,7514.013C1534.983,6802.123 946.171,6357.249 797.156,6257.658C764.296,6235.697 752.734,6225.95 738.432,6208.152C723.913,6190.086 717.333,6173.198 717.333,6154C717.333,6129.116 728.54,6107.083 753.956,6082C781.659,6054.66 826.677,6026.598 878,6004.676C886.067,6001.23 1407.167,5807.918 2036,5575.093C2664.833,5342.269 3179.459,5151.651 3179.612,5151.498C3179.766,5151.345 3114.956,5086.145 3035.591,5006.61C2798.723,4769.234 2658.065,4623.752 2557.744,4512.379C2499.074,4447.244 2480.759,4424.038 2467.993,4398.656C2457.925,4378.64 2454.533,4366.394 2454.533,4350.061C2454.533,4297.866 2512.122,4267.092 2620.667,4261.283C2637.792,4260.366 2653.341,4258.704 2664.123,4256.637C2786.496,4233.179 3063.264,4222.476 3444.556,4226.459C3594.038,4228.02 3654.495,4229.02 3779.333,4231.996C4092.108,4239.454 4518.368,4255.82 4613.333,4264.017C4930.945,4291.435 5214.281,4298.167 5480,4284.61C5747.163,4270.979 5990.586,4235.457 6184.667,4181.779C6248.374,4164.159 6314.758,4141.442 6354.693,4123.594C6366.355,4118.382 7633.537,3417.483 7651.333,3406.401C7816.94,3303.275 7997.764,3233.101 8164,3207.447C8234.761,3196.527 8320.647,3193.788 8372.667,3200.792C8381.467,3201.977 8394.367,3203.207 8401.333,3203.526C8408.3,3203.844 8837.9,3188.248 9356,3168.868L10298,3133.631L10316,3137.426C10548.785,3186.513 10805.069,3159.136 11062,3057.738C11128.356,3031.551 11202.772,2995.506 11256.346,2963.602C11265.396,2958.213 11920.67,2500.647 12712.51,1946.79C13504.351,1392.932 14152.421,939.976 14152.666,940.221C14152.911,940.466 14145.011,955.667 14135.111,974C13999.641,1224.859 13899.126,1449.324 13844.898,1622.09C13788.409,1802.062 13773.402,1936.889 13798.727,2036.912C13824.011,2136.774 13887.943,2196.376 13992.095,2217.18C14023.67,2223.488 14037.088,2224.572 14083.333,2224.553C14128.786,2224.534 14146.385,2223.314 14188.667,2217.248C14406.046,2186.062 14712.199,2065.118 15075.333,1866.974C15172.777,1813.803 15285.389,1748.308 15365.175,1698.401C15377.92,1690.428 15388.569,1684.124 15388.838,1684.393C15389.106,1684.662 15398.334,1875.333 15409.343,2108.108C15427.21,2485.874 15429.704,2533.553 15432.564,2552C15441.691,2610.882 15440.245,2686.866 15428.555,2762.667C15411.796,2871.339 15372.677,2997.083 15319.048,3114.667C15297.807,3161.239 15299.513,3158.581 15232.535,3249.434C14930.808,3658.719 14582.53,4138.142 14304.689,4526.667C13751.168,5300.693 13392.598,5829.436 13249.93,6082C13228.822,6119.366 13200.533,6175.557 13192.872,6195.333C13174.685,6242.282 13178.374,6258.49 13204.667,6247.154C13304.293,6204.202 13533.475,6171.57 13924,6144.73C14253.953,6122.053 14762.357,6103.444 15202.667,6097.926C15246.712,6097.374 15273.679,6096.473 15283.735,6095.216C15373.112,6084.047 15425.291,6122.89 15436.676,6209.068C15440.722,6239.697 15438.646,6283.255 15431.323,6321.333C15429.561,6330.5 15426.858,6347.9 15425.317,6360C15407.267,6501.752 15355.582,6680.395 15277.573,6870.667C15207.307,7042.05 15113.29,7230.559 15009.58,7408C14968.667,7478 14967.475,7479.729 14915.332,7544.688C14682.527,7834.71 14427.151,8138.059 14208.75,8384C13921.114,8707.907 13681.818,8949.693 13518,9081.937C13406.936,9171.594 13329.561,9247.047 13245.841,9347.333C13077.103,9549.46 12935.287,9810.078 12859.132,10058L12851.76,10082L12851.193,10106C12847.724,10253.04 12841.611,10365.053 12828.599,10520C12812.627,10710.211 12791.81,10896.719 12747.343,11248C12693.947,11669.831 12682.3,11776.266 12671.839,11938C12670.985,11951.2 12670.118,11993.573 12669.913,12032.162C12669.569,12096.757 12669.312,12103.669 12666.675,12119.286C12633.003,12318.675 12319.122,12881.812 11791.934,13688.667C11736.619,13773.326 11576.414,14013.456 11516.74,14101.154C11242.75,14503.814 11005.102,14832.548 10891.63,14965.855C10870.367,14990.834 10817.986,15042.891 10798,15058.905C10770.249,15081.142 10747.826,15094.605 10725.962,15102.16C10716.972,15105.266 10713.072,15105.845 10700.667,15105.916C10686.82,15105.996 10685.492,15105.759 10676.913,15101.696C10663.969,15095.565 10654.792,15085.575 10646.588,15068.686C10630.864,15036.313 10625.661,14989.874 10630.526,14925.333C10636.432,14847.004 10622.519,14677.273 10590.582,14438C10560.194,14210.344 10510.146,13897.848 10453.274,13580.667C10439.248,13502.444 10440.079,13506.667 10438.706,13506.667C10438.111,13506.667 10405.308,13523.083 10365.812,13543.148C9467.634,13999.435 8214.669,14628.044 7622,14919.712C7138.564,15157.623 6849.311,15295.129 6738.866,15339.539C6702.866,15354.015 6669.332,15363.924 6637.674,15369.441C6619.882,15372.542 6585.056,15373.89 6572.78,15371.952ZM5622.667,12413.432C6014.63,12401.704 6308.591,12377.938 6540.667,12339.216C6815.441,12293.368 7437.069,12109.868 7989.333,11911.579C8812.336,11616.081 9427.819,11311.896 9743.333,11044.712C9821.305,10978.684 9893.764,10901.596 9918.889,10857.941C9943.836,10814.594 9953.951,10780.512 9948.174,10759.263C9946.099,10751.629 9938.737,10743.617 9930.391,10739.909C9924.278,10737.192 9921.191,10736.767 9907.333,10736.734C9882.449,10736.674 9857.558,10742.912 9809.333,10761.297C9645.605,10823.712 9060.642,10979.49 8520,11104.651C7683.912,11298.209 7024.75,11409.221 6615.221,11425.444C6563.611,11427.488 6443.212,11426.339 6408,11423.467C6318.735,11416.184 6242.747,11399.569 6182.018,11374.055C6132.049,11353.062 6096.694,11325.037 6080.981,11293.966C6073.841,11279.848 6071.357,11268.671 6071.508,11251.333C6071.64,11236.19 6072.795,11229.695 6093.088,11130C6104.88,11072.067 6118.427,11005.467 6123.192,10982C6185.297,10676.153 6270.388,10268.443 6318.679,10045.333C6370.634,9805.293 6395.611,9699.689 6412.024,9650.667C6443.248,9557.403 6448.588,9512.289 6432.384,9478.667C6427.859,9469.277 6414.755,9456.162 6405.333,9451.594C6390.209,9444.262 6378.887,9442.202 6353.333,9442.133C6324.665,9442.056 6317.038,9443.236 6250.667,9458.015C6064.323,9499.506 5917.808,9522.636 5841.175,9522.659C5812.983,9522.669 5799.898,9520.886 5781.838,9514.578C5744.586,9501.567 5721.35,9478.076 5709.392,9441.333C5699.295,9410.312 5699.559,9364.55 5710.122,9314.386C5721.401,9260.824 5774.726,9141.167 5904.302,8878.667C5971.529,8742.475 6076.887,8536.357 6242.003,8218C6360.856,7988.843 6359.972,7990.609 6367.847,7966.667C6376.493,7940.381 6378.37,7917.288 6373.217,7900.604C6369.616,7888.944 6360.263,7879.018 6349.291,7875.211C6328.491,7867.994 6289.306,7875.707 6247.23,7895.3C6235.561,7900.734 6232.358,7903.391 6157.837,7969.468C6115.327,8007.161 6060.474,8055.399 6035.94,8076.664C5873.697,8217.294 5673.001,8398.843 5504.688,8557.231C5295.914,8753.696 5095.131,8954.289 4949.561,9111.834C4663.427,9421.506 4508.396,9643.312 4484.127,9777.745C4483.031,9783.811 4477.418,9795.223 4458.223,9830.411C4289.452,10139.787 4166.485,10394.704 4135.546,10499.333C4128.109,10524.485 4126.631,10532.369 4124.544,10558C4123.469,10571.2 4121.134,10594 4119.355,10608.667C4114.426,10649.291 4112.896,10670.017 4113.743,10684.667C4114.759,10702.213 4116.642,10710.666 4122.104,10722.176C4138.343,10756.402 4184.542,10766.731 4267.333,10754.646C4322.588,10746.58 4562.075,10700.264 4995.333,10613.854C5166.303,10579.755 5194.448,10573.813 5206,10569.377C5272.475,10543.847 5321.419,10544.727 5348.038,10571.931C5370.978,10595.375 5376.284,10637.68 5363.97,10698.953C5359.398,10721.702 5345.609,10776.548 5297.334,10964C5130.914,11610.203 5062.148,11927.577 5051.916,12096.667C5050.026,12127.906 5050.74,12139.906 5057.354,12188C5060.228,12208.9 5064.707,12241.408 5067.308,12260.241C5077.628,12334.968 5085.878,12360.712 5105.897,12380.659C5129.571,12404.248 5161.813,12411.406 5258.964,12414.642C5302.435,12416.09 5562.79,12415.223 5622.667,12413.432ZM7536,5726.646C7580.198,5725.153 7935.892,5710.803 8132,5702.601C8202.767,5699.642 8279.267,5696.677 8302,5696.013C8344.432,5694.774 8362.294,5692.902 8391.333,5686.651C8475.165,5668.604 8555.239,5627.806 8626.661,5566.752C8636.097,5558.685 8740.129,5490.334 9035.07,5298.417C9318.201,5114.186 9431.35,5039.879 9432.685,5037.297C9435.116,5032.598 9449.396,5019.854 9488.667,4987.341C9534.612,4949.302 9549.553,4935.955 9577.393,4908.086C9617.615,4867.822 9639.94,4837.217 9649.25,4809.58C9669.445,4749.633 9623.425,4711.703 9513.185,4697.431C9470.58,4691.915 9457.684,4691.331 9380,4691.402C9310.99,4691.465 9295.21,4691.938 9192,4697.048C9040.672,4704.54 8862.91,4712.81 8668.667,4721.396C8618.067,4723.632 8550.867,4725.995 8519.333,4726.646C8473.459,4727.593 8458.403,4728.365 8444,4730.504C8361.999,4742.688 8293.189,4770.877 8229.333,4818.446C8210.95,4832.14 7511.311,5276.62 7487.077,5290C7448.03,5311.559 7396.002,5343.47 7351.19,5373.347C7208.303,5468.613 7130.107,5548.529 7121.203,5608.397C7113.357,5661.153 7165.311,5698.091 7271.341,5715.14C7340.318,5726.231 7431.264,5730.184 7536,5726.646ZM14058.667,2220.432C14019.304,2218.672 13976.276,2210.851 13946.667,2200.074C13929.122,2193.689 13901.975,2179.611 13888.039,2169.672C13871.91,2158.169 13851.183,2137.446 13839.652,2121.294C13822.033,2096.615 13805.654,2057.705 13798.731,2024.084C13784.587,1955.403 13787.631,1873.753 13808.054,1774C13849.844,1569.879 13964.366,1294.53 14147.496,957.871L14161.347,932.408L14181.674,912.501C14235.743,859.547 14311.228,793.999 14377.8,742.192C14563.465,597.706 14738.676,507.794 14880.667,484.14C14911.878,478.94 14924.207,478 14960.667,478.037C14998.905,478.077 15011.942,479.358 15041.333,485.968C15147.846,509.918 15231.618,584.263 15290.768,707.333C15380.884,894.834 15414.939,1195.128 15392.606,1605.333C15389.853,1655.906 15388.102,1679.118 15386.965,1680.123C15385.133,1681.742 15323.23,1719.698 15289.373,1739.961C15096.814,1855.208 14888.459,1964.676 14711.333,2043.656C14436.141,2166.365 14211.322,2227.258 14058.667,2220.432Z" style="fill:white;fill-rule:nonzero;"/>
                        </g>
                    </g>
                </g>
            </g>
        </g>
    </g>
</svg>
