<?xml version="1.0" encoding="UTF-8"?><svg id="b" xmlns="http://www.w3.org/2000/svg" viewBox="0 0 347.49 161.87"><defs><style>.d{fill:#232b35;}</style></defs><g id="c"><g><path class="d" d="M156.4,43.83c2.81-7.45,5.88-14.24,9.22-20.39,6.77-.73,11.59-2.27,14.45-4.61,2.86-2.34,4.3-4.56,4.3-6.64,0-1.46-.55-2.71-1.64-3.75-1.09-1.04-2.58-1.56-4.45-1.56-.83,0-1.82,.16-2.97,.47-1.67,.52-3.36,1.69-5.08,3.52-1.72,1.82-3.23,3.62-4.53,5.39-1.3,1.77-2.16,2.97-2.58,3.59-6.77,.62-14.58,1.23-23.44,1.8-8.85,.57-17.55,1.8-26.09,3.67-10.21,2.29-18.44,5.6-24.69,9.92-6.25,4.32-10.78,9.12-13.59,14.37-2.81,5.26-4.22,10.44-4.22,15.55,0,4.48,.96,8.65,2.89,12.5,1.93,3.85,4.63,6.95,8.12,9.3,3.49,2.34,7.47,3.52,11.95,3.52,1.46,0,2.97-.13,4.53-.39,1.56-.26,3.18-.7,4.84-1.33,3.02-1.15,5.73-3.02,8.12-5.62,2.4-2.6,4.32-5.55,5.78-8.83,1.46-3.28,2.19-6.59,2.19-9.92,0-1.15-.08-2.32-.23-3.52-.16-1.2-.5-2.32-1.02-3.36-.62-1.25-1.35-1.88-2.19-1.88-.42,0-.62,.21-.62,.62v.31c.31,1.56,.47,3.18,.47,4.84,0,3.12-.5,6.38-1.48,9.77-.99,3.39-2.48,6.41-4.45,9.06-1.98,2.66-4.48,4.51-7.5,5.55-2.6,.94-5.05,1.41-7.34,1.41-4.58,0-8.18-1.72-10.78-5.16-2.6-3.44-3.91-7.71-3.91-12.81,0-4.69,1.22-9.63,3.67-14.84,2.45-5.21,6.25-10,11.41-14.37,5.16-4.37,11.8-7.71,19.92-10,7.29-2.08,14.97-3.46,23.05-4.14,8.07-.68,15.6-1.43,22.58-2.27-1.04,1.98-2.4,4.79-4.06,8.44-1.67,3.65-3.52,7.66-5.55,12.03-2.03,4.38-4.01,8.7-5.94,12.97-1.93,4.27-3.65,8.07-5.16,11.41-1.51,3.33-2.58,5.78-3.2,7.34-2.92,6.67-6.48,13.8-10.7,21.41-4.22,7.6-9.35,15-15.39,22.19-6.04,7.19-13.2,13.54-21.48,19.06-8.28,5.52-18.05,9.53-29.3,12.03-1.67,.42-3.44,.7-5.31,.86s-3.8,.23-5.78,.23c-5,0-10.1-.65-15.31-1.95-5.21-1.3-10-3.36-14.37-6.17-4.38-2.81-7.92-6.43-10.62-10.86-2.71-4.43-4.06-9.77-4.06-16.02,0-1.77,.16-3.65,.47-5.62,.62-4.69,2.03-8.72,4.22-12.11,2.19-3.38,4.4-6.04,6.64-7.97,2.24-1.93,3.83-3.1,4.77-3.52,.52-.31,.78-.73,.78-1.25,0-.62-.52-.94-1.56-.94h-.47c-1.25,.1-3.12,.96-5.62,2.58-2.5,1.62-4.92,3.8-7.27,6.56-2.34,2.76-4.04,6.02-5.08,9.77-.52,2.19-.94,4.3-1.25,6.33s-.47,3.98-.47,5.86c0,6.88,1.54,13.02,4.61,18.44,3.07,5.42,7.24,10,12.5,13.75,5.26,3.75,11.2,6.59,17.81,8.52,6.61,1.93,13.46,2.89,20.55,2.89,1.77,0,3.59-.08,5.47-.23,1.87-.16,3.7-.34,5.47-.55,10.1-1.56,18.98-4.43,26.64-8.59,7.66-4.17,14.32-9.32,20-15.47,5.68-6.15,10.6-12.94,14.77-20.39,4.17-7.45,7.89-15.21,11.17-23.28,3.28-8.07,6.3-16.14,9.06-24.22,2.76-8.07,5.55-15.83,8.36-23.28Zm15-27.73c1.15-1.35,2.24-2.4,3.28-3.12,1.35-1.04,2.5-1.56,3.44-1.56,1.04,0,1.56,.52,1.56,1.56,0,.62-.34,1.35-1.02,2.19-.68,.83-1.75,1.67-3.2,2.5-1.35,.73-3.65,1.35-6.88,1.87,.73-.94,1.67-2.08,2.81-3.44Z"/><path class="d" d="M343.66,33.59c-2.55-3.96-6.8-7.71-12.73-11.25-5.42-3.33-11.51-5.83-18.28-7.5,1.46-1.35,2.81-2.55,4.06-3.59,1.25-1.04,2.29-1.77,3.12-2.19,1.67-1.04,2.5-1.93,2.5-2.66,0-.42-.31-.62-.94-.62-.73,0-1.82,.31-3.28,.94-2.29,.83-4.38,1.77-6.25,2.81-1.87,1.04-3.7,2.24-5.47,3.59-4.27-.83-8.65-1.46-13.12-1.88-4.48-.42-8.96-.62-13.44-.62-5.21,0-10.34,.21-15.39,.62-4.83,.4-9.49,.95-13.99,1.63,1.82-2.66,3.54-5.34,5.16-8.03,.73-1.15,1.09-2.19,1.09-3.12,0-1.15-.47-1.72-1.41-1.72-1.15,0-2.34,.99-3.59,2.97-2.44,3.78-5.06,7.47-7.85,11.09-2.94,.59-6.04,1.29-9.34,2.11-5.62,1.41-11.25,3.28-16.87,5.62s-10.83,5.21-15.62,8.59c-4.79,3.39-8.62,7.32-11.48,11.8-2.87,4.48-4.3,9.64-4.3,15.47,0,3.05,.43,5.81,1.29,8.26-6.9,4.73-13.35,8.8-19.33,12.21-6.41,3.65-11.93,6.41-16.56,8.28-4.64,1.88-7.94,2.71-9.92,2.5-.73,.42-1.09,2.29-1.09,5.62,0,2.71,.31,6.15,.94,10.31,.62,4.17,1.59,8.65,2.89,13.44,1.3,4.79,2.99,9.53,5.08,14.22,2.5,5.52,5.62,10.49,9.37,14.92,3.75,4.43,8.05,7.94,12.89,10.55,4.84,2.6,10.13,3.91,15.86,3.91,4.48,0,9.09-1.04,13.83-3.12,4.74-2.08,9.04-4.79,12.89-8.12,3.85-3.33,6.72-6.93,8.59-10.78,.52-.94,.78-1.77,.78-2.5,0-.62-.21-.94-.62-.94-.83,0-1.56,.73-2.19,2.19-1.98,3.75-4.74,6.85-8.28,9.3-3.54,2.45-7.45,4.27-11.72,5.47-4.27,1.2-8.44,1.8-12.5,1.8-6.04,0-11.38-2.11-16.02-6.33-4.64-4.22-8.62-10.23-11.95-18.05-2.19-5.1-4.04-10.13-5.55-15.08-1.51-4.95-2.63-9.37-3.36-13.28-.73-3.91-1.09-6.74-1.09-8.52,0-1.25,.16-1.77,.47-1.56,5.42-1.35,11.69-3.91,18.83-7.66,6.68-3.51,13.68-7.85,20.99-13,2.12,2.67,4.73,4.74,7.83,6.2,3.65,1.72,7.5,2.58,11.56,2.58s7.86-.86,11.72-2.58c3.85-1.72,7.06-4.24,9.61-7.58,2.55-3.33,3.88-7.29,3.98-11.88,0-1.15-.31-1.72-.94-1.72-.73,0-1.15,.52-1.25,1.56-1.15,3.44-2.92,6.59-5.31,9.45-2.4,2.87-5.1,5.16-8.12,6.87-3.02,1.72-6.15,2.58-9.38,2.58-4.38,0-8.2-1.56-11.48-4.69-1.38-1.32-2.46-2.79-3.26-4.4,6.7-4.97,13.39-10.42,20.05-16.38,7.81-6.98,15.16-14.45,22.03-22.42,2.87-3.32,5.56-6.68,8.1-10.06,1.51-.36,2.99-.69,4.4-.96,4.79-.83,9.61-1.48,14.45-1.95s9.97-.7,15.39-.7c3.65,0,7.34,.13,11.09,.39,3.75,.26,7.39,.65,10.94,1.17-1.35,1.15-2.73,2.53-4.14,4.14-1.41,1.62-2.79,3.15-4.14,4.61-6.67,7.5-12.55,15.52-17.66,24.06-5.1,8.54-9.82,17.01-14.14,25.39-4.32,8.39-8.67,16.25-13.05,23.59s-9.22,13.62-14.53,18.83c-5,4.9-10.29,8.85-15.86,11.87-5.57,3.02-11.64,4.53-18.2,4.53-5.21,0-9.01-1.2-11.41-3.59-2.4-2.4-3.59-5.05-3.59-7.97s1.17-5.81,3.52-8.36c2.34-2.55,5.75-3.83,10.23-3.83,1.35,0,2.79,.13,4.3,.39,1.51,.26,3.1,.7,4.77,1.33,.42,.21,.94,.31,1.56,.31s.94-.21,.94-.62c0-.73-.62-1.3-1.88-1.72-2.5-.83-4.87-1.43-7.11-1.8-2.24-.36-4.35-.55-6.33-.55-6.35,0-11.28,1.56-14.77,4.69s-5.23,6.62-5.23,10.47c0,3.54,1.54,6.82,4.61,9.84s7.89,4.95,14.45,5.78c2.19,.31,4.43,.47,6.72,.47,7.08,0,14.01-1.41,20.78-4.22,6.77-2.81,13.02-6.93,18.75-12.34,4.69-4.48,8.91-9.09,12.66-13.83,3.75-4.74,7.39-9.61,10.94-14.61,.73,.1,1.48,.16,2.27,.16h2.27c4.27,0,9.11-.31,14.53-.94,5.42-.62,10.78-1.61,16.09-2.97,5.52-1.35,11.09-3.52,16.72-6.48,5.62-2.97,10.78-6.48,15.47-10.55,4.69-4.06,8.49-8.46,11.41-13.2,2.91-4.74,4.37-9.5,4.37-14.3,0-4.17-1.28-8.23-3.83-12.19Zm-110.39-7.03c-6.98,7.5-14.25,14.48-21.8,20.94-5.83,4.99-11.63,9.58-17.39,13.79,0-.22-.03-.44-.03-.66,0-.52,.02-1.07,.08-1.64,.05-.57,.13-1.12,.23-1.64,.94-5.83,3.41-10.99,7.42-15.47,4.01-4.48,8.85-8.31,14.53-11.48,5.68-3.18,11.54-5.75,17.58-7.73,1.36-.45,2.68-.86,3.98-1.25-1.5,1.74-3.03,3.46-4.61,5.15Zm98.67,33.44c-3.8,5.73-8.96,10.94-15.47,15.62-6.51,4.69-13.83,8.28-21.95,10.78-4.9,1.46-9.79,2.55-14.69,3.28-4.9,.73-9.32,1.04-13.28,.94,5.1-7.81,9.92-15.83,14.45-24.06,4.53-8.23,9.11-16.41,13.75-24.53,4.63-8.12,9.61-15.94,14.92-23.44,3.33,.73,6.51,1.67,9.53,2.81,3.02,1.15,5.73,2.5,8.12,4.06,3.64,2.4,6.27,5.1,7.89,8.12,1.61,3.02,2.42,6.2,2.42,9.53,0,5.52-1.9,11.15-5.7,16.87Z"/></g></g></svg>