<?xml version="1.0" encoding="UTF-8"?><svg id="b" xmlns="http://www.w3.org/2000/svg" viewBox="0 0 246.66 233.37"><defs><style>.d{fill:#fff;}</style></defs><g id="c"><g><path class="d" d="M245.44,135.58c-.81-5.21-2.28-9.42-4.39-12.63-2.11-3.21-4.96-5.53-8.53-6.95-3.57-1.42-8.12-2.13-13.65-2.13h-33.56c-1.83,0-3.32,1.49-3.32,3.32v112.85c0,1.83,1.49,3.32,3.32,3.32h18.87c1.83,0,3.32-1.49,3.32-3.32v-29.35c0-1.83,1.49-3.32,3.32-3.32h8.05c5.52,0,10.07-.73,13.65-2.21,3.57-1.47,6.42-3.89,8.53-7.26,2.11-3.37,3.57-7.76,4.39-13.18,.81-5.42,1.22-12.02,1.22-19.81s-.41-14.13-1.22-19.34Zm-26.08,33.31c-.97,2.58-2.66,3.87-5.04,3.87h-3.5c-1.83,0-3.32-1.49-3.32-3.32v-27.3c0-1.83,1.49-3.32,3.32-3.32h2.85c2.49,0,4.31,1,5.44,3,1.14,2,1.71,6.16,1.71,12.47,0,7.16-.49,12.02-1.46,14.6Z"/><path class="d" d="M157.05,166.44l18.18-51.9v-.79h-23.98c-1.6,0-3.02,1.03-3.52,2.55l-15.39,46.92c-.06,.18-.22,.3-.41,.3h-.83c-.25,0-.45-.22-.43-.47,.08-.88,.15-1.74,.2-2.59,.05-.99,.08-2.12,.08-3.37v-39.62c0-2.04-1.66-3.7-3.7-3.7h-16.27c-3.34,0-6.04,2.71-6.04,6.04v109.08c0,2.04,1.66,3.7,3.7,3.7h18.61c2.04,0,3.7-1.66,3.7-3.7v-45.35c0-1.34-.08-2.61-.25-3.83-.04-.26,.16-.49,.42-.49h.8c.19,0,.36,.13,.42,.31l14.49,50.38c.46,1.59,1.91,2.68,3.56,2.68h26.3v-.79l-19.67-63.03c-.24-.76-.22-1.57,.04-2.33Z"/><path class="d" d="M123.73,109.83c1.71,0,3.32-.84,4.29-2.26l24.37-35.46,50.31,32.63c2.45,1.59,5.76,.95,7.4-1.43l.68-.99c1.64-2.38,.98-5.6-1.47-7.19l-45.68-29.63-1.39-36.56c-.02-.5-.44-.89-.94-.87l-24.75,.89c-.5,.02-.89,.44-.87,.94l.68,17.94L63.51,.6c-1.68-1.09-3.95-.65-5.07,.98L2.3,83.27c-4.19,6.1-2.5,14.35,3.78,18.42l75.77,49.15c6.28,4.07,14.77,2.43,18.96-3.67,.6-.87,.92-1.9,.92-2.95v-29.19c0-2.88,2.33-5.21,5.21-5.21h16.8Z"/></g></g></svg>