<?xml version="1.0" encoding="UTF-8"?><svg id="b" xmlns="http://www.w3.org/2000/svg" viewBox="0 0 1177.84 724.47"><defs><style>.d,.e,.f{fill:#007aff;}.g{fill:#f1c0c0;}.h{fill:#fbbebe;}.i{fill:#fed253;}.j,.k{fill:#6c63ff;}.l{fill:#b5711f;}.m{fill:#be6f72;}.n{fill:#3f3d56;}.o,.k,.e,.f,.p{isolation:isolate;}.o,.k,.f{opacity:.1;}.q,.p{opacity:.2;}.e{opacity:.1;}</style></defs><g id="c"><g><path class="e" d="M1177.84,465.31c.02,19.63-2.35,39.19-7.07,58.24-1.59,6.42-3.43,12.71-5.53,18.86-2.57,7.6-5.55,15.05-8.92,22.32-1.7,3.68-3.5,7.29-5.39,10.82,.03,20.13-4.11,40.04-12.17,58.49-14.56,33.09-40.54,59.85-73.18,75.4-20.41,9.74-42.72,14.86-65.33,15H223.61c-34.55,.07-68.51-9-98.42-26.31l-.46-.26c-4.26-2.49-8.41-5.13-12.46-7.92-9.1-6.29-17.66-13.34-25.57-21.08-10.71-10.46-20.14-22.15-28.11-34.83-18.71-29.71-28.62-64.12-28.59-99.23C11.05,501.56,0,461.73,0,418.93c0-54,17.56-103.26,46.41-140.55,6.01-7.79,12.6-15.12,19.71-21.93,7.01-6.74,14.55-12.91,22.54-18.45,6.39-4.44,13.07-8.45,20-12,2.89-1.47,5.79-2.86,8.74-4.15,2.59-1.15,5.21-2.22,7.86-3.23,3.18-1.21,6.4-2.32,9.66-3.33,3.26-1.01,6.48-1.9,9.65-2.66,4.67-1.14,9.41-2.07,14.24-2.78,4-.59,8-1,12-1.31,3.18-.24,6.39-.37,9.62-.41h1.75c3.56,0,7.1,.14,10.61,.38,.37-.74,.77-1.49,1.14-2.22,1.4-2.67,2.85-5.33,4.31-7.93,0-.02,0-.05,0-.07,.25-.46,.5-.91,.76-1.35,1.18-2.13,2.41-4.24,3.67-6.33,.58-1,1.15-1.94,1.74-2.88,.12-.23,.26-.46,.41-.68,.6-1,1.21-2,1.83-3,3.09-4.93,6.3-9.78,9.63-14.54l.85-1.22c.52-.74,1-1.46,1.58-2.2,1.38-1.93,2.8-3.87,4.23-5.77,1-1.36,2-2.71,3.08-4,2.6-3.33,5.27-6.67,8-10s5.57-6.62,8.52-9.87c.4-.45,.8-.89,1.22-1.33l4.27-4.66h0c.21-.22,.39-.42,.59-.62h0c.51-.55,1-1.1,1.55-1.63,2.29-2.43,4.64-4.81,7-7.18,12.01-11.96,24.81-23.11,38.3-33.37,.53-.42,1.07-.82,1.6-1.22,2.54-1.91,5.12-3.8,7.7-5.66,14.19-10.18,29.03-19.43,44.41-27.7,1.06-.61,2.14-1.18,3.23-1.74,13.79-7.3,27.98-13.83,42.49-19.56,7.91-3.13,16-6.07,24.14-8.76,5.42-1.78,10.86-3.47,16.37-5.06,8.61-2.48,17.29-4.7,26.02-6.67,25.73-5.77,51.9-9.34,78.24-10.66C547.67,.22,555.76,.01,563.94,0c39.47-.05,78.79,4.92,117,14.8,.8,1.21,2.18,1.93,3.63,1.89h3.36c1.46,.4,2.91,.8,4.37,1.22,8.15,2.35,16.19,4.91,24.11,7.69l2,.72c19.55,6.95,38.57,15.31,56.91,25,16.53,8.72,32.46,18.55,47.65,29.44,2.34,1.68,4.65,3.37,6.92,5.08,2.76-1.77,5.57-3.46,8.42-5.08,11.02-6.28,22.72-11.26,34.88-14.87,25.42-7.52,52.31-8.57,78.24-3.06,33.25,7.05,63.35,24.55,87.66,49.44,9.9,10.18,18.71,21.37,26.29,33.38,.55,.86,1.1,1.73,1.63,2.61,6.52,10.63,12.12,21.79,16.74,33.37,.17,.43,.34,.83,.49,1.25,4.27,10.84,7.71,21.99,10.3,33.35,.12,.58,.26,1.15,.38,1.73,2.42,10.99,4.06,22.15,4.92,33.37,0,.4,0,.81,.08,1.23,.42,5.81,.63,11.67,.64,17.6,0,5.3-.18,10.56-.51,15.78,0,.57-.08,1.16-.13,1.75-.09,1.51-.22,3-.35,4.52,7.64,6.16,14.79,12.9,21.38,20.17,2.91,3.18,5.73,6.48,8.46,9.9,8.31,10.41,15.6,21.58,21.8,33.37,16.91,31.92,26.63,69.47,26.63,109.66Z"/><path class="k" d="M1064.84,705.74c0,6.83-23.53,13.23-64.59,18.73H223.61c-34.55,.07-68.51-9-98.42-26.31l-.46-.26c11.8-4.3,33.1-8.31,62.09-11.93h0l1.3-.16c13-1.59,27.53-3.1,43.41-4.53,.4,0,.81-.06,1.21-.11h0c12.6-1.12,26-2.17,40.21-3.15,.45,0,.89-.08,1.34-.1,5.48-.39,11.07-.77,16.78-1.12h0l2.2-.14c41.55-2.58,88.78-4.64,140-6h.06c7.17-.2,14.42-.38,21.75-.53,8.15-.19,16.39-.36,24.74-.51,6.37-.14,12.82-.24,19.29-.34h.15c29.19-.44,59.35-.66,90.19-.66,76.26,0,148.34,1.39,212.21,3.89h.18c9.82,.38,19.46,.8,28.86,1.23l8,.38c10.61,.51,20.94,1.05,31,1.63h0c118.3,6.73,195.14,17.66,195.14,29.99Z"/><g class="q"><path class="d" d="M680.3,664.03c-.03,1.08-.16,2.15-.37,3.21-6.96-1.11-13.96-2.11-21-3v-.86c.07-3,.93-5.93,2.5-8.48,2.06-3.26,5.19-5.3,8.64-5.19s6.44,2.34,8.29,5.71c1.4,2.65,2.07,5.62,1.94,8.61Z"/><ellipse class="d" cx="670.18" cy="646.6" rx="14.01" ry="10.7" transform="translate(2.73 1296.03) rotate(-88.19)"/><ellipse class="d" cx="670.73" cy="629.48" rx="14.01" ry="10.7" transform="translate(20.37 1279.99) rotate(-88.19)"/><ellipse class="d" cx="671.26" cy="612.36" rx="14.01" ry="10.7" transform="translate(38 1263.95) rotate(-88.19)"/><ellipse class="d" cx="671.8" cy="595.24" rx="14.01" ry="10.7" transform="translate(55.63 1247.9) rotate(-88.19)"/><path class="d" d="M635.4,476.79c-1.41-1.91-2.68-3.91-3.8-6l28.26-3.73-30.42-.73c-5.49-13.01-5.37-27.71,.31-40.64l40.12,22.45-36.75-28.84c14.89-24.09,46.5-31.54,70.58-16.65,24.09,14.89,31.54,46.5,16.65,70.58-1.31,2.13-2.78,4.15-4.39,6.06,2.19,2.97,4.05,6.16,5.55,9.53l-37.09,17.8,39.33-11.83c5.03,16.6,1.34,34.62-9.82,47.91,16.8,22.8,11.94,54.9-10.85,71.7s-54.9,11.94-71.7-10.85c-14.05-19.06-13.22-45.25,2-63.39-14.04-19.06-13.21-45.25,2-63.38h.03Z"/><path class="f" d="M725.93,511.37c-.35,11.5-4.58,22.55-12,31.34,16.8,22.8,11.94,54.9-10.85,71.7s-54.9,11.94-71.7-10.85c-14.05-19.06-13.22-45.25,2-63.39-6.57-8.93,92.74-34.55,92.56-28.8Z"/></g><g class="q"><path class="d" d="M528.3,664.03c-.03,1.08-.16,2.15-.37,3.21-6.96-1.11-13.96-2.11-21-3v-.86c.07-3,.93-5.93,2.5-8.48,2.06-3.26,5.19-5.3,8.64-5.19s6.44,2.34,8.29,5.71c1.4,2.65,2.07,5.62,1.94,8.61Z"/><ellipse class="d" cx="518.17" cy="646.61" rx="14.01" ry="10.7" transform="translate(-144.48 1144.1) rotate(-88.19)"/><ellipse class="d" cx="518.71" cy="629.49" rx="14.01" ry="10.7" transform="translate(-126.84 1128.06) rotate(-88.19)"/><ellipse class="d" cx="519.25" cy="612.37" rx="14.01" ry="10.7" transform="translate(-109.21 1112.02) rotate(-88.19)"/><ellipse class="d" cx="519.79" cy="595.25" rx="14.01" ry="10.7" transform="translate(-91.58 1095.97) rotate(-88.19)"/><path class="d" d="M483.4,476.79c-1.41-1.91-2.68-3.91-3.8-6l28.26-3.73-30.42-.73c-5.49-13.01-5.37-27.71,.31-40.64l40.12,22.45-36.75-28.84c14.89-24.09,46.5-31.54,70.58-16.65,24.09,14.89,31.54,46.5,16.65,70.58-1.31,2.13-2.78,4.15-4.39,6.06,2.19,2.97,4.05,6.16,5.55,9.53l-37.09,17.8,39.33-11.83c5.03,16.6,1.34,34.62-9.82,47.91,16.8,22.8,11.94,54.9-10.85,71.7s-54.9,11.94-71.7-10.85c-14.05-19.06-13.22-45.25,2-63.39-14.04-19.06-13.21-45.25,2-63.38h.03Z"/><path class="f" d="M573.93,511.37c-.35,11.5-4.58,22.55-12,31.34,16.8,22.8,11.94,54.9-10.85,71.7s-54.9,11.94-71.7-10.85c-14.05-19.06-13.22-45.25,2-63.39-6.57-8.93,92.74-34.55,92.56-28.8Z"/></g><g class="q"><path class="d" d="M943.5,674.97c-.08,2.04-.32,4.08-.73,6.08-13.4-2.14-26.9-4.05-40.49-5.74v-1.65c.13-5.77,1.79-11.41,4.82-16.33,4-6.27,10-10.2,16.63-10s12.4,4.51,16,11c2.71,5.11,4.02,10.86,3.77,16.64Z"/><ellipse class="d" cx="923.99" cy="641.4" rx="26.98" ry="20.61" transform="translate(253.73 1544.66) rotate(-88.19)"/><ellipse class="d" cx="925.03" cy="608.44" rx="26.98" ry="20.61" transform="translate(287.68 1513.78) rotate(-88.19)"/><ellipse class="d" cx="926.08" cy="575.48" rx="26.98" ry="20.61" transform="translate(321.64 1482.91) rotate(-88.19)"/><ellipse class="d" cx="925.93" cy="541.05" rx="26.99" ry="20.62" transform="translate(357.36 1450.34) rotate(-88.28)"/><path class="d" d="M857.05,314.51c-2.7-3.67-5.14-7.52-7.31-11.53l54.4-7.18-58.55-1.41c-10.57-25.05-10.36-53.35,.58-78.24l77.25,43.21-70.74-55.52c28.77-46.32,89.63-60.54,135.95-31.77,46.32,28.77,60.54,89.63,31.77,135.95-2.48,3.99-5.23,7.79-8.25,11.39,4.21,5.71,7.8,11.87,10.69,18.35l-71.41,34.29,75.71-22.8c9.69,31.93,2.61,66.59-18.83,92.15,32.34,43.89,22.98,105.69-20.91,138.04-43.89,32.34-105.69,22.98-138.04-20.91-27.03-36.69-25.44-87.11,3.85-122.02-27.02-36.68-25.43-87.09,3.84-122h0Z"/><path class="f" d="M1031.35,381.07c-.66,22.13-8.76,43.39-23,60.34,32.34,43.89,22.98,105.69-20.91,138.04-43.89,32.34-105.69,22.98-138.04-20.91-27.03-36.69-25.44-87.11,3.85-122.02-12.74-17.21,178.45-66.52,178.1-55.45Z"/></g><polygon class="g" points="157.84 676.73 168.33 676.7 183.12 676.7 201.82 372.92 387.01 63.89 378.96 55.25 378.96 33.37 178.68 365.76 157.84 676.73"/><polygon class="o" points="169.45 676.7 183.12 676.7 201.82 372.92 387.01 63.89 378.96 55.25 187.94 368.29 169.45 676.7"/><polygon class="g" points="126.93 679.26 606.78 715.98 607.19 716.01 1071.58 687.45 1071.93 687.43 1071.93 667.82 560.23 658.43 133.32 658.02 130.2 658.02 129.86 660.22 126.93 679.26"/><polygon class="o" points="126.93 679.26 606.78 715.98 607.19 716.01 1071.58 687.45 1071.93 687.07 1071.93 668.23 1071.52 668.23 606.78 683.75 133.32 658.02 133.25 658.02 132.41 658.57 129.86 660.22 126.93 679.26"/><polygon class="o" points="126.93 679.26 606.78 715.98 606.78 683.75 132.41 658.57 129.86 660.22 126.93 679.26"/><polygon class="g" points="378.9 54.84 590.45 281.9 583.91 681.3 601.88 683.47 602.18 683.51 620.15 683.51 622.3 299.05 1018.43 431.37 1025.11 666.97 1039.57 668.59 1044.47 669.14 1033.13 415.03 619.03 269.65 391.97 33.6 378.9 33.6 378.9 54.84"/><polygon class="o" points="620.67 291.7 622.3 299.05 1018.43 431.37 1025.11 666.97 1039.57 668.59 1028.23 426.47 620.67 291.7"/><polygon class="o" points="378.9 54.84 590.45 281.9 583.91 681.3 601.88 683.47 606.78 268.83 378.9 33.6 378.9 54.84"/><polygon class="g" points="621.44 451.99 766.73 480.6 766.78 480.61 1021.25 530.74 1032.9 526.07 1032.86 525.25 1032.1 509 621.59 426.05 621.44 451.99"/><polygon class="o" points="766.78 480.61 1021.25 530.74 1032.9 526.07 1032.86 525.25 766.78 480.61"/><polygon class="g" points="776.51 350.56 780.44 566.9 782.47 677.89 800.36 677.29 811.62 676.91 808.12 353.69 800.36 351.11 798.66 350.56 776.51 350.56"/><polygon class="o" points="776.67 350.51 776.67 350.56 780.44 566.9 782.47 677.89 800.36 677.29 800.36 350.51 776.67 350.51"/><path class="n" d="M496.28,405.81c1.05,.57,2.05,1.22,3,1.95,1.12,.98,2.13,2.08,3,3.29,4.29,5.55,8.25,12,7.83,19,.02,2.06-.78,4.04-2.23,5.5-1.77,1.51-4.31,1.58-6.63,1.58-2.52,0-5.17,0-7.35-1.3s-4-3.83-6.58-3.77c-.36,.06-.74,.06-1.1,0-.89-.29-1.07-1.46-1.65-2.2-1-1.33-3.11-1-4.68-.42s-3.31,1.45-4.86,.78c-.9-.47-1.64-1.21-2.11-2.11-3.71-6-4.5-13.21-5.2-20.18-.43-4.24-3.71-18.7,5.34-15.41,4,1.44,7.74,4.32,11.38,6.43l11.84,6.86Z"/><path class="n" d="M487.34,407.24c1.66,1.2,3.93,1.11,5.49-.22,1.49-1.35,2.44-3.19,2.67-5.18,1-.31,1.51,1,2.15,1.8,1.12,1.36,3.4,1.34,4.42,2.79,.71,1,.55,2.39,1.05,3.52,.65,1.46,2.26,2.22,3.36,3.4,1.04,1.29,1.79,2.79,2.2,4.39l1.64,4.92c.78,2.05,1.29,4.19,1.5,6.37,.21,2.2-.48,4.4-1.9,6.09-2.2,2.37-5.81,2.62-9,2.55-1.07,.02-2.13-.1-3.16-.37-2.83-.88-4.64-3.73-5.39-6.6s-.67-5.88-1.11-8.82c-.48-2.89-1.32-5.7-2.5-8.38-.88-2.08-3.3-5.18-3.26-7.39,.72,0,1.24,.66,1.84,1.13Z"/><path class="m" d="M490.93,397.11c-.47-1.42-.74-2.9-.81-4.39,0-3,1.37-5.82,2.75-8.5l-11.43,1.55c-1.38,.19-2.92,.47-3.7,1.62-.6,1.16-.6,2.53,0,3.69,.57,1.14,1.03,2.34,1.36,3.57,.03,1.08,.15,2.15,.37,3.21,.36,.78,.85,1.48,1.47,2.07,3.27,3.62,5.72,7.89,8.16,12.12-.07-.12,6.89-5.51,6.61-7.27-.16-1-2.17-2.2-2.81-3.16-.88-1.39-1.55-2.91-1.97-4.51Z"/><polygon class="g" points="588.93 358.04 588.93 367.89 420.26 400.79 411.51 406.09 381.32 406.09 381.32 400.54 547.04 360.5 588.93 358.04"/><polygon class="o" points="588.93 367.89 420.26 400.79 411.51 406.09 381.32 406.09 548.27 370.36 588.93 367.89"/><path class="l" d="M453.51,637.66c-3.87-4.69-10.46-6.09-15.9-3.38-.57,.27-1.06,.66-1.46,1.14-1,1.4-.36,3.33-.27,5.06,.23,4.22-3.13,7.65-6.15,10.6-1.62,1.58-3.27,3.27-4,5.42s-.19,4.88,1.77,6c.86,.43,1.79,.69,2.74,.76,3.2,.62,6.47,.71,9.7,.27,3.19-.61,6.32-2.42,7.7-5.36,.27-.8,.71-1.52,1.29-2.13,1.76-1.39,4.46,.24,6.46-.75,1.65-.82,1.72-2.11,1.74-3.81,.06-4.7-.64-10.02-3.62-13.82Z"/><path class="l" d="M477.51,637.48c1.23,3.24,1.4,6.77,1.56,10.23,.09,2,.15,4.14-.93,5.83s-3.19,2.58-5.21,3c-4.17,.86-9,.05-11.69-3.26-2.06-2.53-2.49-6-2.11-9.28,.32-2.69,1-5.84-.93-7.75-.5-.51-1.15-.87-1.61-1.42-1-1.22-.84-3.06-.3-4.56,.7-1.43,1.23-2.95,1.57-4.51,.08-.74,13.54,.52,14.78,1.13,1.69,.83,1.43,2.22,1.94,3.9,.71,2.34,2.07,4.45,2.93,6.69Z"/><path class="n" d="M479.98,493.82c2.64,1.71,3.66,5.07,4.07,8.19,1.13,8.55-.85,17.19-1,25.82-.14,12.09,3.36,24.4,.37,36.11-1.79,7-.27,15-1.95,22.07-.5,2.1-1.42,4.08-1.9,6.18-1,4.55,.05,9.31,1.46,13.76,.45,1.2,.74,2.45,.85,3.73-.07,1.96-.57,3.89-1.46,5.64l-6,14.19c-.67,1.59-3.31,1.85-5,2.06-3.18,.38-6.73,.65-9.26-1.32s-3.14-5.27-3.53-8.35c-.75-5.91-1.08-11.87-1-17.83,.11-1.56-.03-3.12-.41-4.63-.55-1.71-1.76-3.19-2.09-5-.42-2.34,.77-4.64,1.21-7,.3-2.16,.27-4.34-.1-6.49-.39-3.2-.84-6.4-1.35-9.58-.72-4.45,.31-8.84,1-13.3,.65-4.19-.18-8.46-1-12.62,.07,3.38-.35,6.74-1.25,10-.53,1.59-1.29,3.11-1.75,4.73-2.05,7.27,2.32,14.9,1.7,22.43-.29,3.52-1.67,7-1.28,10.47,.27,2.54,1.45,4.87,2.26,7.29s1.23,5.19,0,7.45c-3.25,6.14-.82,14.49,2.09,20.79,.59,1.12,1.11,2.27,1.54,3.46,.86,2.84,.14,5.89,.37,8.85-1.7,.28-3.43-.24-4.69-1.41-.44-.46-.8-1-1.23-1.48-1.2-1.15-2.62-2.03-4.18-2.61-.91-.51-1.95-.75-3-.69-1.1,.31-2.09,.92-2.85,1.77-.99,.87-2.04,1.67-3.14,2.39-.47,.36-1.02,.6-1.6,.71-.6,.09-1.19-.21-1.47-.75-.06-.17-.1-.34-.11-.52-.37-3.02-.57-6.06-.59-9.1,0-5.23-6.26-8.83-7.05-14-.63-4.17,.54-8.42,.15-12.62-.19-2.16-.79-4.28-.75-6.44,0-1.4,.32-2.77,.43-4.16,.09-1.54,.07-3.09-.07-4.63l-.31-4.83c-.3-4.77-.63-9.64-2.51-14-2.23-5.09-3.55-10.53-3.9-16.08-.2-3.5-.07-7-.47-10.51-.36-3.17-1.16-6.32-.93-9.5,.19-2.46,1-4.84,1.19-7.3,.39-4.73-1.41-9.33-2.82-13.86s-2.45-9.55-.6-13.92c.26-.72,.7-1.36,1.28-1.86,.71-.47,1.52-.77,2.36-.88,17.16-3.6,34.74-4.73,52.22-3.33,2.85,.16,5.61,1.02,8.05,2.51Z"/><circle class="m" cx="423.21" cy="371.59" r="16.02"/><path class="m" d="M420.11,391.6c.23,.92,.23,1.87,0,2.79-.25,.64-.61,1.23-1.05,1.76-1.55,2-3.27,3.87-5.13,5.58,.95,2.12,2.66,3.81,4.79,4.73,2.12,.9,4.34,1.54,6.61,1.89,1.13,.3,2.32,.38,3.48,.24,1.07-.27,2.09-.73,3-1.36l8.9-5.33c1.34-.73,2.59-1.62,3.7-2.67,1.63-1.68,2.56-3.92,2.58-6.26,.04-.42-.07-.84-.32-1.18-.34-.3-.77-.48-1.22-.51-3.13-.69-5.6-3.23-7-6.11-1.27-2.95-2.08-6.08-2.43-9.27l-9.49,5c-1.41,.75-2.81,1.5-4.27,2.15-.93,.42-2.81,.77-3.47,1.62-1.26,1.57,.99,5.04,1.32,6.93Z"/><path class="n" d="M413.99,398.82c-1.35,1.11-2.41,2.53-3.07,4.15-.62,2,0,4.11,.56,6.09,2.62,8.44,4.63,17.06,6,25.79,.84,6,1.15,12.09,1.56,18.16,.84,12.38,2.06,32.12,3.69,44.42,6,.27,11.85-1.48,17.8-2.12,11.12-1.18,22.57,1.52,33.46-1-2.64-10.43-5.28-28.24-7.92-38.66-1.17-4.11-1.98-8.3-2.42-12.55-.23-3.05-.09-6.11-.05-9.18,.09-6-.24-12-.57-18-.38-7-.76-14-2.42-20.85-.12-.87-.52-1.68-1.16-2.29-1-.73-2.3-.47-3.49-.31-3.64,.46-7.33-.41-10.38-2.46-1.32-.9-3.09-2-4.32-1-.52,.6-.87,1.34-1,2.13-1.1,2.86-3.38,5.11-6.26,6.17-2.85,1.03-5.83,1.65-8.86,1.82-.93,.2-1.89,.09-2.75-.31-1.42-.87-1.52-4-3.31-4.21-1.57-.18-4.03,3.2-5.09,4.21Z"/><path class="d" d="M437.65,423.24c-3.69-3.53-5.31-8.65-8-13-1.83-2.93-4.17-5.5-6.91-7.6-1.38-.91-2.64-1.98-3.76-3.19-.95-1.17-1.67-2.73-3.11-3.18-1.21-.26-2.47,.08-3.37,.93-.88,.84-1.72,1.73-2.5,2.66-4.24,4.39-11.69,5-15.05,10.08-.91,1.08-1.52,2.37-1.79,3.75-.97,7.39,.94,14.88,5.34,20.9,.85,1.4,2.16,2.46,3.7,3-.21,1.86,.04,3.75,.72,5.5,1.85,6.33,4.13,12.53,6.81,18.55-.64,2.36-1.09,4.76-1.34,7.19-.7,6.11-.05,12.31-.71,18.43-.54,5-2,9.87-2.05,14.88,0,.8,.07,1.75,.76,2.16,.37,.19,.78,.27,1.19,.25l12.3,.37c7.14,.21,14.35,.42,21.38-.9,.94-.14,1.84-.43,2.69-.85,2.38-1.33,3.17-4.33,3.55-7,.5-3.46,.69-6.96,.59-10.46,1.49,4.71,3.26,9.58,7.76,11.62,2.38,1.08,5.1,1,7.71,.93,5.63-.25,11.23-.83,16.79-1.73,1.21,.15,2.32-.71,2.47-1.92,.03-.22,.02-.43-.02-.65l.06-5.46c.12-11.09-2.63-21.69-3.7-32.73-.34-3.48-.31-7-1.16-10.41-.35-1.43-.86-2.83-1.17-4.27-.27-1.41-.43-2.84-.5-4.27l-.78-11c-.37-5.09-.9-10-1.29-15.08-.21-4.95-.93-9.86-2.14-14.66-.87-3-2.68-6.4-5.81-6.77-1.67-.19-3.29,.54-4.88,1.05-3.91,1.23-8.1,1.21-12-.05-1.2-.48-2.46-.81-3.74-1-1.31-.18-2.62,.36-3.42,1.42-.39,.78-.57,1.65-.53,2.52-.47,9.99-1.34,20.28-4.09,29.99Z"/><path class="n" d="M421.56,423.54c-4.61-4.86-9.34-9.81-15.28-12.9-2.34-1.22-5-2.14-7.59-1.68s-5,2.71-4.88,5.34c.08,1.63,1.07,3.07,1.38,4.67,.36,1.8-.16,3.72,.4,5.46,.46,1.15,1.14,2.19,2,3.07l7.08,8.39c3,3.5,6,7.05,9.86,9.47s8.86,3.55,13.1,1.83c3.02-1.4,5.52-3.7,7.18-6.59,1.76-2.8,3-5.86,4.65-8.75,2.57-4.62,5.96-8.73,10-12.13-2.08-.54-4.69-1.3-6-3-.37-.54-.69-1.12-.95-1.72l-1.62-3.5c-1.11-.06-2.2,.35-3,1.13-.69,.8-1.44,1.56-2.23,2.27-1.41,1.06-3.32,1.35-4.6,2.56-.5,.52-.94,1.08-1.34,1.68-1.96,2.57-4.93,4.18-8.16,4.4Z"/><path class="m" d="M449.83,402.63c3.47-6.33,3.31-13.92,4.3-21.07,.11-1.89,.77-3.71,1.91-5.23,2-2.26,5.53-2.29,8.55-2,.89,.1,2,.52,1.95,1.41-.07,.32-.23,.61-.45,.85-2.93,3.78-4.65,8.35-4.94,13.12,1.57,1.09,4-1.15,5.51,0,1,.84,.54,2.5-.06,3.7-1.39,2.78-2.83,5.54-4.31,8.28-1.18,2.42-2.72,4.64-4.57,6.59-1.27,1.22-2.76,2.18-4.05,3.38-3,2.81-4.81,6.78-7.91,9.52-.26,.28-.62,.46-1,.51-.39-.03-.77-.19-1.05-.47-1.55-1.26-2.83-2.81-3.78-4.57-1.18-2.18-1-2.82,.86-4.36,3.48-2.75,6.87-5.7,9.04-9.66Z"/><path class="j" d="M415.76,419.24c.6,.37,1.34,.79,2,.48,.27-.16,.5-.39,.67-.65,1.14-1.53,2.1-3.18,2.84-4.94,.13-.25,.2-.52,.21-.8,0-.64-.57-1.11-1.1-1.48-2.84-1.81-5.89-3.26-9.09-4.32-2.64-1-5.4-1.87-8.2-1.62-2.13,.14-4.1,1.15-5.47,2.78-2,2.57,1.35,3.35,3.45,4.28,4.86,2.21,10.12,3.49,14.69,6.27Z"/><path class="o" d="M412.61,436.24c-.07,.46,.09,.93,.42,1.26,.29-1.42-.09-2.92,.21-4.35,.44-2.15,2.53-3.77,2.71-5.93-3.83-.75-3.31,6.7-3.34,9.02Z"/><polygon class="p" points="588.93 358.04 588.93 367.89 548.27 370.36 547.04 360.5 588.93 358.04"/><path class="n" d="M408.79,373.97c2.54-2.07,1.07-6.41,2.79-9.19,1-1.52,2.69-2.32,4.35-3,2-.94,4.15-1.53,6.35-1.76,2.23-.21,4.44,.6,6,2.21,.65,.74,1.09,1.64,1.7,2.41,1.54,1.83,3.96,2.67,6.3,2.18,1.33-.3,2.71-1.31,2.62-2.67-.15-.83-.57-1.58-1.2-2.14l-2.86-3.17c-3.25-3.6-6.86-7.42-11.63-8.32-3.32-.63-6.72,.26-9.92,1.33-1.29,.43-2.74,1.07-3.1,2.38-.24,.9,.12,1.88-.09,2.79-.41,1.81-2.73,2.42-3.81,3.94s-.75,3.32-1.06,5-1.21,3.32-1.32,5.06c-.07,1.05,.46,3,1.64,3.38s2.51-1.68,3.24-.43Z"/><path class="i" d="M437.93,362.71c-.84-4.4-2.66-8.55-5.32-12.16-2.36-3.37-5.65-5.98-9.47-7.52-3.87-1.51-8.21-1.17-11.79,.93-2.62,1.87-4.67,4.45-5.89,7.43-2.59,5.58-3.55,12.4-.54,17.76,1.2-1.46,3.26-.8,5.08-1.33,2.28-.65,4.21-2.17,6.38-3.12,6.55-2.89,14.55-.55,21.55-1.99Z"/><path class="o" d="M406.45,362.4c-.23-1.8-.38-3.89,.9-5.17,.13-.16,.33-.25,.53-.24,.18,.06,.33,.19,.41,.36,.74,1.17,1.37,2.4,1.88,3.68-1.52-.35-3.11,.26-4,1.55"/><path class="o" d="M429.82,357.32l-.36-3.57c-.06-.29-.03-.6,.07-.88,.31-.49,.94-.66,1.46-.4,.49,.27,.9,.68,1.17,1.17,.83,1.28,1.52,2.64,2.06,4.07-1.61-.31-3.27-.29-4.87,.06"/><polygon class="o" points="438.77 502.21 438.77 510.37 431.88 510.83 395.64 510.83 395.64 502.21 438.77 502.21"/><polygon class="g" points="438.77 502.21 438.77 510.83 395.64 510.83 281.06 367.3 281.06 360.52 305.08 360.52 438.77 502.21"/><polygon class="o" points="438.77 502.21 438.77 510.83 395.64 510.83 281.06 367.3 281.06 360.52 305.08 360.52 438.77 502.21"/><polygon class="o" points="438.77 502.21 438.77 510.83 395.64 510.83 281.06 367.3 281.06 360.52 396.26 502.21 438.77 502.21"/><path class="l" d="M296.08,646.07c.3,1.63-.77,3.19-2.4,3.5-.07,.01-.15,.02-.22,.03-2.78,.94-5.73,1.87-7.7,4s-2.36,6.08,0,7.81c1.21,.73,2.59,1.1,4,1.09,4.53,.31,9.25,.25,13.36-1.67,2.94-1.36,5.71-3.68,8.94-3.47,1.67,.1,3.45,.88,4.94,.12s1.91-2.88,1.92-4.65c.04-3.7-.52-7.37-1.65-10.89-.15-.48-6.51-.85-7.27-1l-7.71-1c-1.46-.19-4.61-1.29-5.76-.07s-.45,4.75-.45,6.2Z"/><path class="l" d="M342.09,621.11c.33,1.8,.86,3.56,1.58,5.24,1.07,2.72,2.44,5.61,5.06,6.93,2.38,1.19,5.3,.76,7.72-.37,1.01-.42,1.9-1.09,2.57-1.95,.78-1.36,1.13-2.93,1-4.49,0-3.87-.23-7.87-2-11.31-1.52-3-4.17-5.58-4.21-8.9l-9.11,1.76c-.49,.05-.95,.23-1.34,.53-.29,.3-.49,.68-.58,1.09-.97,3.74-1.21,7.64-.69,11.47Z"/><path class="j" d="M233.3,526.11c-.38,3.22-.22,6.67,1.46,9.45s5.22,4.62,8.28,3.51c.32-.08,.59-.29,.75-.57,.08-.34,.04-.69-.13-1-1.35-3.61-1.24-7.6,.31-11.12,.2-.46,.63-1,1.1-.82,.2,.1,.35,.26,.45,.46,.48,.84,.73,1.79,.7,2.76-.14,.88-.17,1.77-.08,2.65,.19,.86,1.11,1.67,1.91,1.3,.47-.29,.8-.75,.91-1.29,2.23-6.45,1.22-13.5,.2-20.25,.03-.58-.42-1.08-1-1.12-.06,0-.13,0-.19,0-4.72-.47-7.3-1.6-10,2.79-2.32,3.7-4.67,8.79-4.67,13.24Z"/><path class="n" d="M286.69,510.66c-1.24,5.86-2.5,11.78-2.43,17.76,.12,3.72,.5,7.43,1.14,11.1l1.28,8.63c.44,2.91,.86,5.81,1.45,8.68,.36,1.48,.58,2.99,.65,4.51-.06,1.5-.26,3-.59,4.47-.55,3.08-.82,6.2-.8,9.32,.02,5,.78,9.98,1.3,14.97,1.04,9.94,1.19,19.95,.44,29.92-.33,2.69,.32,5.42,1.84,7.66,.61,.71,1.12,1.49,1.51,2.34,.81,2.27-.88,4.6-1.27,6.97-.5,3.83,2.2,7.34,6.03,7.84,8.02,.74,16.23,.09,23.53,3.56,.7-2.24-1.03-4.71-.33-6.99,.44-1.41,1.74-2.36,2.61-3.56,1.16-1.83,1.71-3.98,1.56-6.14-.04-2.83-.62-5.62-1.7-8.23-.91-2.18-2.19-4.31-2.18-6.67-.03-1.16,.35-2.39-.15-3.45-.34-.61-.79-1.14-1.33-1.58-3.07-3.19-5.02-7.3-5.54-11.71-.51-4.37-.48-8.78,.07-13.15,.38-4.15,.92-8.54,3.47-11.84-1.48-9.76-1.03-19.71,1.33-29.3,.24-.89,.62-1.92,1.51-2.15,.72-.09,1.45,.17,1.94,.71,1.61,1.43,2.41,3.54,3.15,5.56,.81,2.19,1.63,4.53,1.12,6.8-.21,1.01-.67,1.9-.92,2.87-.56,1.94-.4,4.02,.46,5.86,.41,.67,.67,1.41,.78,2.19-.07,.67-.26,1.32-.55,1.94-.69,2.41-.32,5,1.02,7.13,1.33,2.09,2.95,3.98,4.82,5.6-.77,3.86-.44,7.86,.96,11.54,.2,.33,.26,.73,.16,1.11-.17,.38-.63,.54-.98,.82-.98,.85-.32,2.38,.38,3.43,1.91,2.89,4.02,5.64,6.29,8.26,2.06,2.34,2.01,6.95,5.01,7.73,1.26,.24,2.55,.2,3.8-.1,2.93-.53,6.18-1.46,7.55-4.1,.56-1.09,.77-2.39,1.67-3.22s2.08-1,2.57-1.97-.12-2.22,.02-3.33,1.09-2.03,1.37-3.21c.67-2.72-2.54-4.85-3.04-7.6-.73-3.98,4.23-7.11,3.92-11.11-.67-8.68-1.18-17.39-1.86-26.07-.77-7.77-1.06-15.57-.86-23.38,.22-4.86,.74-9.95-1.16-14.41-2.73-6.29-9.88-9.67-16.73-10.17s-13.61,1.3-20.35,2.54c-11.19,2.03-22.59,2.57-33.92,1.61Z"/><circle class="h" cx="308.78" cy="398.1" r="16.02"/><path class="h" d="M302.26,417.11c-1.11,2.59-3.71,4.24-6.53,4.13-.58,2.4,.81,4.82,2.4,6.71,6.72,7.82,17.15,11.4,27.26,9.35,1.93-.35,3.76-1.11,5.37-2.24,2.16-1.81,3.62-4.32,4.1-7.1,.46-2.76,.59-5.56,.39-8.35,.06-.55-.1-1.1-.44-1.54-.4-.31-.89-.47-1.4-.46-3.38-.3-6.91-.43-9.88-2.09s-5.08-5.41-3.65-8.49c-.23,.48-6.07,.71-6.84,.81-2.41,.34-4.82,.72-7.22,1.16-1.15,.06-2.29,.28-3.39,.64-1.45,.75-.91,.38-.57,1.74,.51,2.08,1.26,3.57,.4,5.73Z"/><path class="n" d="M314.45,426.85c-2.16,.02-4.31-.21-6.41-.71-2.12-.5-3.99-1.74-5.26-3.51-.74-1.12-1.22-2.53-2.4-3.16-1.93-1-4.13,.69-5.67,2.24-1.4,1.53-3.03,2.84-4.82,3.88-2.14,1.13-4.64,1.53-6.66,2.86-1.58,1.19-2.93,2.66-4,4.32l-14.17,19.3c-5.69,7.76-10.64,16.09-15.71,24.28-4.39,7.09-6.69,15.25-10,22.9-.26,.47-.37,1.01-.31,1.54,.12,.52,.75,.94,1.19,.64-1.49,1.48-.18,4-.53,6.08-.4,1.46-1.23,2.76-2.38,3.73,2.2-.29,4.44-.18,6.6,.31,2.24,.63,4.35,1.65,6.24,3,1.21-.19,1.1-2.34,2-3.14,.54-.47,1.34-.41,2.05-.55,2.67-.52,3.73-3.73,5.78-5.54,1.71-1.51,4.13-2,5.94-3.42,2.94-2.31,3.57-6.42,5.11-9.83,1.31-2.89,3.37-5.41,4.52-8.37,.75-1.92,1.11-4,2.18-5.77,1.71-2.86,4.93-4.38,8-5.75,1.94-.87,4-1.77,6.09-1.63-.11,4.65-.7,9.23,.31,13.77,.35,1.6,.84,3.16,1.26,4.75,1.91,7.16,2.36,14.62,2.45,22,4.59-1.05,9.29-1.61,14-1.68,3.71-.11,7.41,.37,11.12,.3,4.4-.08,8.75-.93,13.15-1.23s9,0,12.89,2c-.32-6.34-.14-12.69,.53-19l1.06-9.94c.24-2.89,.68-5.76,1.33-8.58,.58-2.28,1.42-4.48,2.06-6.75,2.25-8,1.84-16.54,1.41-24.87-.22-4.28-1.87-8.49-3.81-12.3-.7-1.42-1.5-2.78-2.4-4.08-4.77-6.57-12.56-10.23-20.66-9.7-.51,.02-1.01,.12-1.48,.32-.84,.54-1.5,1.33-1.89,2.25-2.07,3.72-5.07,6.83-8.71,9.04Z"/><path class="n" d="M294.69,403.41c.45-1,1.66-1.37,2.4-2.17,1.42-1.52,.78-3.95,1-6,.36-3,2.85-5.51,5.7-6.58,2.91-.93,6-1.13,9-.57,1.44,.11,2.84,.57,4.06,1.35,.52,.38,1,.87,1.49,1.22,1.86,1.12,4.27,.56,5.44-1.27-3.54-4.26-7.46-8.76-12.84-10.07-1.85-.38-3.73-.55-5.61-.53-2.49-.05-5.06-.09-7.36,.86-3.13,1.29-5.33,4.26-6.46,7.46-.99,3.24-1.52,6.61-1.57,10-.2,2.26-.2,4.54,0,6.8,.39,3.09,1.53,6.03,3.34,8.57,.24,.39,.59,.72,1,.93,4.56,2,.04-9.17,.41-10Z"/><path class="i" d="M323.26,386.92c-.55-4.71-3.91-8.6-7.48-11.73-2.88-2.71-6.3-4.78-10.05-6.05-3.77-1.11-8.11-.87-11.34,1.38-2.6,1.81-4.25,4.69-5.52,7.59-1.67,3.42-2.49,7.19-2.41,11,.25,3.78,2.09,7.61,5.37,9.52,1.18-1.74,3.23-2.64,5.2-3.35,8.59-3.26,17.34-6.05,26.23-8.36Z"/><path class="o" d="M292.93,384.96c.32,0,.53,.33,.69,.6,.81,1.27,1.51,2.61,2.09,4-1.17,.25-3.18,.53-3.76-.5-.31-.52,.06-4.15,.98-4.1Z"/><path class="o" d="M315.72,382.7c-.24,.23-.52-.24-.52-.58v-3.88c0-.11,.02-.22,.07-.31,.08-.1,.2-.15,.33-.16,.81-.09,1.48,.6,2,1.26,.79,1.07,1.48,2.21,2.05,3.41l-4.23-.13"/><path class="n" d="M368.51,446.95c.92-.87,1.9-1.68,2.94-2.41,2.77-1.85,6.12-2.58,9.23-3.76s6.27-3.09,7.48-6.19c.61-1.94,.8-3.98,.58-6,.03-.85-.12-1.69-.44-2.47-.38-.69-.92-1.28-1.58-1.72-4.22-3.12-9.88-3.37-15.12-3.05-11.55,.72-22.88,3.54-33.41,8.34-.56,.18-1.05,.53-1.4,1-.21,.43-.3,.91-.27,1.39-.19,2.95,.2,5.91,1.13,8.71,1.38,3.56,4.22,6.43,5.41,10.06,.54,1.63,.72,3.36,1.19,5,.39,1.69,1.39,3.18,2.81,4.18,3.95,2.36,7.68-.81,10.42-3.27l11.03-9.81Z"/><path class="d" d="M316.78,460.8l-5.07-11.06c-.74-1.53-1.38-3.11-1.92-4.73-.58-1.93-.86-3.93-1.4-5.87-1.78-6.46-6.27-11.84-8.46-18.17-.14-.57-.42-1.1-.82-1.53-.65-.46-1.46-.6-2.23-.4-3.06,.53-5.45,2.86-8.25,4.18-1.3,.6-2.7,1-4,1.69-1.31,.62-2.29,1.79-2.68,3.19-.31,1.53,.45,3,1.09,4.49,2.72,6.14,3.34,13,3.46,19.72,.09,4.52-.14,9.37-2.81,13-5.13,7-1.85,17.28,.07,25.75,.23,1,.5,2.08,.66,3.14,.17,1.33,.25,2.66,.23,4,0,4.49-.25,9.12-2.13,13.19,1.86,.99,3.9,1.57,6,1.7,5.81,.74,11.64,1.26,17.49,1.56,1.83,.17,3.68,.08,5.49-.28,4.41-1.19,7.46-5.23,7.39-9.8,.32,2.77,.91,5.78,2.92,7.7s4.94,2.21,7.67,2.36c7.7,.41,15.43,.19,23.1-.65,.49-.02,.97-.13,1.42-.33,1.48-.74,1.56-2.78,1.44-4.42-.22-3.07-.45-6.14-.82-9.19-.31-1.94-.47-3.91-.48-5.88,.15-2.03,.49-4.03,1-6,1.34-6.24,2.4-12.61,1.95-19-.18-1.56-.24-3.12-.19-4.69,.26-3.53,2.12-6.89,1.77-10.4-1-10.32-1.81-20.91-4.69-30.87-.52-1.78-1.18-3.69-2.73-4.71-2-1.34-4.81-.64-7.1-1.49-1.07-.5-2.1-1.11-3.05-1.81-2.07-1.3-4.45-2.03-6.89-2.12-1.84-.07-3.89,.34-5,1.82-.51,.83-.85,1.76-1,2.73-1.45,6.1-3.15,12.13-4.85,18.16l-1.63,5.78-4.37,15.52c-.43,1.65-.14,2.16-.58,3.72Z"/><polyline class="g" points="342.35 400.25 439.08 501.9 439.08 510.52 395.95 510.52 323.26 415.65"/><polyline class="o" points="342.35 400.25 439.08 501.9 439.08 510.52 395.95 510.52 323.26 415.65"/><polygon class="o" points="324.8 414.31 325.11 414.42 396.57 501.9 439.08 501.9 439.08 510.52 395.95 510.52 323.26 415.65 324.8 414.31"/><path class="j" d="M335.93,416.45c-3.5,1.53-7.39,3.49-8.44,7.17-.21,.65-.25,1.33-.13,2,.52,1.61,1.98,2.72,3.67,2.81,1.65,.04,3.28-.26,4.81-.88l20.65-6.82c.56-.18,1.2-.45,1.34-1,.04-.35-.03-.69-.2-1-.64-1.56-1.27-4.75-2.61-5.84-1.1-.88-3.28-.57-4.61-.55-5.12,.04-9.93,2.11-14.48,4.11Z"/><path class="n" d="M354.34,421.54c3.48-.01,6.94,.53,10.25,1.59,3.33,1.08,6.27,3.09,8.49,5.8,.65,.76,1.1,1.65,1.34,2.62,.2,1,3.46,1.6,2.74,2.28,2.19-.35,1.67,.68,3.89,.66s4.62-.59,5.95-2.36c.92-1.45,1.34-3.18,1.17-4.89,.03-1.19-.2-2.37-.66-3.46-1-2.1-3.3-3.23-5.42-4.2l-17.86-8.17c-1.04-.55-2.15-.95-3.3-1.17-.97-.09-1.95-.07-2.91,.07l-8.09,.93c3.6,2.33,5.7,6.39,5.53,10.67"/></g></g></svg>